<?xml version="1.0" encoding="UTF-8"?>
<svg width="132px" height="132px" viewBox="0 0 132 132" version="1.1" xmlns="http://www.w3.org/2000/svg" xmlns:xlink="http://www.w3.org/1999/xlink">
    <!-- Generator: Sketch 63.1 (92452) - https://sketch.com -->
    <title>clara logo@1x</title>
    <desc>Created with Sketch.</desc>
    <g id="PORTFOLIO---NEW" stroke="none" stroke-width="1" fill="none" fill-rule="evenodd">
        <g id="Clara-portfolio-2020" transform="translate(-64.000000, -41.000000)" fill="#000000" fill-rule="nonzero">
            <g id="Top" transform="translate(64.000000, 29.000000)">
                <path d="M21.3115983,37.2968609 L23.047713,39.328603 C1.17797886,57.89389 -4.01906131,90.2592388 12.0197242,114.956803 C29.4348284,141.773711 65.2919596,149.39538 92.1088684,131.980276 C94.2963039,130.559739 96.3560231,129.016496 98.2848555,127.365465 L100.020851,129.39731 C98.0042668,131.12312 95.8509566,132.736319 93.5642301,134.221336 C65.5096178,152.440214 27.997542,144.466777 9.7786638,116.412164 C-6.99938607,90.5762332 -1.56410953,56.7195633 21.3115983,37.2968609 Z M110.493589,114.323349 L112.851878,116.193199 L111.009525,118.516807 L108.651236,116.646956 L110.493589,114.323349 Z M119.777352,84.8933891 L131.468965,96.9940399 L130.492111,100.420379 L114.177129,104.536312 L115.153982,101.109974 L118.758625,100.250724 L121.507164,90.6101563 L118.897577,87.9792221 L119.777352,84.8933891 Z M123.134352,92.247653 L121.004689,99.7174971 L128.663785,97.8741143 L128.669852,97.8528327 L123.134352,92.247653 Z M128.942653,56.6949934 L130.84604,65.6567578 C131.852904,70.3974013 130.61559,72.5605468 128.082918,73.0984605 C126.52435,73.4294843 125.007543,72.8919551 124.140522,71.1531255 L124.140522,71.1531255 L124.097228,71.1623206 C124.096463,73.2890684 122.782715,74.1336762 121.007679,74.5106756 L121.007679,74.5106756 L117.977131,75.1543329 L117.347266,72.1887249 L120.377814,71.5450675 C122.044616,71.191056 122.675437,70.2200159 122.23867,68.1635724 L122.23867,68.1635724 L120.831819,61.5396595 L115.333538,62.7074379 L114.699076,59.7201831 L128.942653,56.6949934 Z M127.217617,60.1833815 L122.801675,61.1212822 L124.148758,67.463787 C124.649891,69.8232854 125.758092,70.6738309 127.078545,70.3933801 C128.420645,70.1083319 129.056638,68.8420911 128.435968,65.9197766 L128.435968,65.9197766 L127.217617,60.1833815 Z M112.424477,33.2883049 L114.719678,36.0133904 L109.013874,51.8425833 L106.718672,49.1174978 L108.020883,45.6482034 L101.562957,37.9807268 L97.9227766,38.6741577 L95.8556698,36.2198882 L112.424477,33.2883049 Z M111.572117,36.0893826 L103.830274,37.5466649 L108.834098,43.4876898 L111.586373,36.1063086 L111.572117,36.0893826 Z M82.0551858,13.8693423 L84.8457146,15.1099803 L79.9460936,26.130547 L88.6007772,29.9783227 L87.5848925,32.2633209 L76.1396801,27.1749072 L82.0551858,13.8693423 Z M36.9845383,28.0480013 L38.1144696,30.8374676 L35.3660249,31.9507823 L34.2360936,29.161316 L36.9845383,28.0480013 Z M57.3049575,12.0018224 C63.5448361,11.9099909 65.6973976,15.3087753 65.7322415,17.6763888 L65.7322415,17.6763888 L65.7364749,17.9640428 L62.9705712,18.0047482 L62.9692686,17.9162393 C62.9467992,16.3894605 61.4118628,14.3537719 57.4953433,14.4114108 C53.6230782,14.4683984 51.5974845,16.689279 51.6414464,19.6764549 C51.6798723,22.2874679 53.4201411,24.7406431 57.6906963,24.6777939 C61.3638163,24.6237371 63.131373,22.9156905 63.1043446,21.0791305 L63.1043446,21.0791305 L63.1023907,20.9463671 L65.8682944,20.9056617 L65.8718764,21.1490612 C65.9122562,23.8928376 63.5677799,27.003692 57.6598097,27.0906388 C50.9331321,27.1896344 48.5534367,23.3958163 48.4993799,19.7226963 C48.4378333,15.54065 51.4412418,12.0881179 57.3049575,12.0018224 Z" id="clara-logo"></path>
            </g>
        </g>
    </g>
</svg>