<?xml version="1.0" encoding="UTF-8"?>
<svg width="70px" height="70px" viewBox="0 0 70 70" version="1.1" xmlns="http://www.w3.org/2000/svg" xmlns:xlink="http://www.w3.org/1999/xlink">
    <!-- Generator: Sketch 63.1 (92452) - https://sketch.com -->
    <title>Group 5@1x</title>
    <desc>Created with Sketch.</desc>
    <g id="PORTFOLIO---NEW" stroke="none" stroke-width="1" fill="none" fill-rule="evenodd">
        <g id="Clara-portfolio-2020" transform="translate(-784.000000, -1698.000000)">
            <g id="Group-4" transform="translate(782.000000, 1696.000000)">
                <g id="Group-5">
                    <path d="M36.999904,1.999981 C56.329939,1.999981 71.999973,17.670015 71.999973,36.999977 C71.999973,56.329939 56.329939,71.999973 36.999904,71.999973 C17.669942,71.999973 1.999908,56.329939 1.999908,36.999977 C1.999908,17.670015 17.669942,1.999981 36.999904,1.999981 Z" id="Ellipse-1" fill="#000000"></path>
                    <g id="Group" transform="translate(19.000000, 27.000000)" fill="#FFFFFF" fill-rule="nonzero">
                        <path d="M9.62,18.616 C11.0413333,18.616 12.3456667,18.3733333 13.533,17.888 C14.7203333,17.4026667 15.73,16.692 16.562,15.756 L16.562,15.756 L14.872,14.118 C13.4853333,15.574 11.778,16.302 9.75,16.302 C8.398,16.302 7.176,15.9986667 6.084,15.392 C4.992,14.7853333 4.13833333,13.949 3.523,12.883 C2.90766667,11.817 2.6,10.6253333 2.6,9.308 C2.6,7.99066667 2.90766667,6.799 3.523,5.733 C4.13833333,4.667 4.992,3.83066667 6.084,3.224 C7.176,2.61733333 8.398,2.314 9.75,2.314 C11.7953333,2.314 13.5026667,3.03333333 14.872,4.472 L14.872,4.472 L16.562,2.834 C15.73,1.898 14.7246667,1.19166667 13.546,0.715 C12.3673333,0.238333333 11.0673333,0 9.646,0 C7.826,0 6.17933333,0.403 4.706,1.209 C3.23266667,2.015 2.08,3.12433333 1.248,4.537 C0.416,5.94966667 0,7.54 0,9.308 C0,11.076 0.416,12.6663333 1.248,14.079 C2.08,15.4916667 3.22833333,16.601 4.693,17.407 C6.15766667,18.213 7.8,18.616 9.62,18.616 Z M27.924,18.408 L35.906,0.208 L33.306,0.208 L26.702,15.158 L20.15,0.208 L17.342,0.208 L25.35,18.408 L27.924,18.408 Z" id="CV"></path>
                    </g>
                </g>
            </g>
        </g>
    </g>
</svg>